# xmcd CD database file
# Copyright (C) 1993-1996 Ti Kan
#
# Track frame offsets:
# 150
# 9852
# 21200
# 32230
# 46000
# 55995
# 66180
# 83175
# 95517
# 105615
# 115107
# 128017
# 139870
# 154880
# 166702
# 180297
# 194022
# 205432
# 217885
# 228675
# 240747
#
# Disc length: 3335 seconds
# Revision: 0
# Processed by: cddbd v1.4b41PL1 Copyright (c) Steve Scherf et al.
# Submitted via: CDSpectrumPro v3.2.327
#
DISCID=190d0515
DTITLE=Willie Nelson - Willie Nelson
DYEAR=1900
DGENRE=
TTITLE0=Let's Pretend
TTITLE1=I'm Gonna Lose A Lot Of Teardrops
TTITLE2=Go Away
TTITLE3=No Tomorrow In Sight
TTITLE4=A New Way To Cry
TTITLE5=Broken Promises
TTITLE6=I Let My Mind Wander
TTITLE7=I Can't Find The Time
TTITLE8=I Didn't Sleep A Wink
TTITLE9=Building Heartaches
TTITLE10=Pages
TTITLE11=Is There Something On Your Mind
TTITLE12=Face Of A Fighter
TTITLE13=I Hope So
TTITLE14=Everything But You
TTITLE15=A Moment Isn't Very Long
TTITLE16=Some Other Time
TTITLE17=The Shelter Of My Arms
TTITLE18=Blame It On The Times
TTITLE19=End Of Understanding
TTITLE20=One Step Beyond
EXTD=
EXTT0=
EXTT1=
EXTT2=
EXTT3=
EXTT4=
EXTT5=
EXTT6=
EXTT7=
EXTT8=
EXTT9=
EXTT10=
EXTT11=
EXTT12=
EXTT13=
EXTT14=
EXTT15=
EXTT16=
EXTT17=
EXTT18=
EXTT19=
EXTT20=
PLAYORDER=
